<svg xmlns="http://www.w3.org/2000/svg" viewBox="0 0 100 100" width="100" height="100">
  <defs>
    <linearGradient id="chefGradient" x1="0%" y1="0%" x2="100%" y2="100%">
      <stop offset="0%" style="stop-color:#4ade80;stop-opacity:1" />
      <stop offset="100%" style="stop-color:#22c55e;stop-opacity:1" />
    </linearGradient>
  </defs>
  
  <!-- Chef Hat -->
  <ellipse cx="50" cy="35" rx="25" ry="15" fill="white" stroke="#e5e7eb" stroke-width="2"/>
  <rect x="25" y="30" width="50" height="8" fill="white"/>
  <ellipse cx="50" cy="22" rx="20" ry="12" fill="white" stroke="#e5e7eb" stroke-width="2"/>
  
  <!-- Face -->
  <circle cx="50" cy="55" r="18" fill="#fbbf24"/>
  
  <!-- Eyes -->
  <circle cx="44" cy="50" r="2" fill="#1f2937"/>
  <circle cx="56" cy="50" r="2" fill="#1f2937"/>
  
  <!-- Nose -->
  <ellipse cx="50" cy="55" rx="1" ry="2" fill="#f59e0b"/>
  
  <!-- Mouth -->
  <path d="M 45 60 Q 50 65 55 60" stroke="#1f2937" stroke-width="2" fill="none" stroke-linecap="round"/>
  
  <!-- Body/Apron -->
  <rect x="35" y="70" width="30" height="25" rx="3" fill="url(#chefGradient)"/>
  
  <!-- Spatula -->
  <rect x="75" y="45" width="3" height="20" fill="#8b5cf6"/>
  <ellipse cx="76.5" cy="42" rx="4" ry="2" fill="#d1d5db"/>
  
  <!-- Steam lines -->
  <path d="M 20 25 Q 22 20 20 15" stroke="#e5e7eb" stroke-width="2" fill="none" stroke-linecap="round"/>
  <path d="M 80 25 Q 82 20 80 15" stroke="#e5e7eb" stroke-width="2" fill="none" stroke-linecap="round"/>
  <path d="M 30 20 Q 32 15 30 10" stroke="#e5e7eb" stroke-width="2" fill="none" stroke-linecap="round"/>
</svg>